<?xml version="1.0" encoding="UTF-8" standalone="no"?>
<!-- Created with Inkscape (http://www.inkscape.org/) -->

<svg
   width="163.20634"
   height="103.57457"
   viewBox="0 0 163.20634 103.57457"
   version="1.1"
   id="svg1"
   xml:space="preserve"
   xmlns="http://www.w3.org/2000/svg"
   xmlns:svg="http://www.w3.org/2000/svg"><defs
     id="defs1" /><g
     id="layer1"
     transform="translate(-253.25647,-316.42251)"><path
       d="m 296.30819,323.21717 c -0.34666,-0.48533 -0.76266,-0.90133 -1.664,-1.94133 -0.208,-0.208 -0.48533,-0.416 -0.55466,-0.416 -0.0693,0 -0.208,-0.13867 -0.34667,-0.34667 -0.27733,-0.27733 -0.27733,-0.27733 -0.832,0 -0.97066,0.48534 -5.2,4.92267 -7.97333,8.25067 -2.77333,3.46666 -8.66666,10.74666 -10.88533,13.58932 -0.76266,0.97067 -1.38666,1.73334 -1.38666,1.664 0,0 0.34667,-1.80266 0.90133,-3.952 1.59467,-6.51733 2.704,-12.47999 2.704,-14.28266 0,-0.76266 -0.0693,-0.832 -1.31733,-2.28799 -0.69334,-0.832 -1.38667,-1.52534 -1.456,-1.52534 -0.13867,0 -0.416,-0.208 -0.624,-0.48533 -0.13867,-0.208 -0.416,-0.48533 -0.55467,-0.48533 -0.624,0 -3.05066,3.12 -4.85333,6.10133 -2.288,3.88266 -3.81333,7.14133 -7.14133,15.25332 -5.68533,14.21333 -7.62666,20.52266 -6.93333,22.32532 0.0693,0.208 0.76267,1.04 1.456,1.73334 1.17867,1.17866 1.38667,1.38666 1.872,1.38666 0.76267,0 1.38667,-0.48533 1.38667,-1.04 0.0693,-0.90133 2.70399,-7.83466 6.58666,-16.98665 1.80267,-4.368 2.288,-5.408 2.08,-4.64534 -0.208,0.90134 -1.248,6.37867 -1.52533,8.04267 -0.48534,2.77333 -0.55467,5.26933 -0.34667,6.03199 0.27733,0.90134 2.288,2.912 2.98133,3.12 0.69333,0.208 1.456,-0.13866 1.80267,-0.832 0.208,-0.34666 0.208,-0.416 -0.13867,-0.76266 -0.34667,-0.34667 -0.34667,-0.48534 0.13867,-3.39734 0.34666,-1.73333 0.48533,-1.87199 2.63466,-4.85333 1.456,-1.872 7.97333,-10.05332 10.74666,-13.45066 0.832,-0.97066 2.01067,-2.42666 2.77334,-3.32799 0.624,-0.832 1.24799,-1.52534 1.31733,-1.456 0,0 -0.208,0.624 -0.55467,1.38666 -0.832,2.08 -4.09066,10.608 -5.54666,14.49066 -3.39733,9.29066 -4.784,13.51999 -4.784,15.18399 0,0.76267 0.0693,0.97067 0.624,1.59467 0.832,1.04 1.80267,1.94133 2.21867,2.08 0.13866,0 0.416,0.0693 0.55466,0.0693 0.34667,0.0693 1.10933,-0.69333 1.04,-0.97066 -0.13867,-0.27734 0.97067,-3.39734 2.98133,-8.80533 0.76267,-1.94134 1.94134,-4.85333 2.496,-6.448 0.624,-1.59467 1.872,-4.784 2.77333,-7.072 4.368,-11.16266 6.72533,-17.95732 7.41867,-20.79999 l 0.27733,-1.17866 z m 22.74127,30.09065 -0.76267,-0.48533 -0.27733,0.34667 c -0.13867,0.13866 -0.90133,1.17866 -1.664,2.14933 -2.288,3.12 -2.496,3.25866 -3.25866,4.16 -0.832,0.97066 -1.664,1.664 -2.77333,2.01066 -1.10934,0.48534 -1.17867,0.34667 -0.97067,-1.73333 0.27733,-2.288 0.69333,-3.744 2.35733,-7.83466 0.76267,-1.872 1.456,-3.60533 1.52533,-3.88267 0.0693,-0.416 -0.0693,-0.48533 -1.38666,-1.456 -0.76267,-0.55466 -1.664,-1.248 -2.01067,-1.456 -0.34666,-0.27733 -0.76266,-0.48533 -1.04,-0.48533 -0.624,0 -1.872,1.04 -2.42666,2.08 l -0.48534,0.832 -0.0693,-0.97067 c -0.0693,-0.55466 -0.208,-1.04 -0.27733,-1.04 -0.13867,-0.0693 -1.38667,-0.90133 -2.77333,-1.94133 -2.63467,-1.94133 -3.39734,-2.288 -4.43734,-2.08 -1.24799,0.208 -2.91199,1.17867 -4.15999,2.56534 -0.76267,0.76266 -2.35734,3.25866 -3.18933,4.92266 -1.248,2.63466 -1.80267,4.64533 -1.872,7.00266 -0.13867,3.744 0.48533,5.33867 2.77333,6.79467 1.04,0.76266 1.31733,0.83199 1.94133,0.83199 1.59467,0 2.63467,-0.83199 6.79466,-5.61599 l 3.12,-3.536 0.0693,2.42667 c 0.13866,2.56533 0.34666,3.53599 1.10933,4.71466 0.624,1.04 2.77333,2.56533 4.16,3.05066 0.27733,0.0693 0.69333,0.0693 1.10933,0 1.73333,-0.13866 3.60533,-1.59466 5.2,-4.02133 0.48533,-0.76266 1.664,-2.56533 2.63466,-4.09066 l 1.73333,-2.704 z m -15.46132,-1.73333 c -0.208,0.69333 -0.624,1.248 -3.67467,4.50667 -1.59467,1.73333 -2.63466,2.70399 -3.60533,3.39733 -0.90133,0.76266 -1.52533,0.97066 -1.38667,0.624 0.34667,-1.10934 3.39733,-7.00267 4.22933,-8.25067 1.664,-2.42666 4.22934,-4.92266 4.50667,-4.50666 0.208,0.34667 0.13867,3.328 -0.0693,4.22933 z m 47.9093,-19.41332 c -0.48534,-0.55467 -1.17867,-1.31733 -1.456,-1.52533 l -0.48534,-0.48534 h -6.23999 c -5.47733,-0.0693 -6.24,-0.0693 -6.10133,-0.27733 0.0693,-0.13867 0.55466,-1.10933 1.10933,-2.08 0.55467,-1.04 0.97067,-2.01067 0.97067,-2.14933 0,-0.13867 -0.624,-0.832 -1.31734,-1.59467 -0.69333,-0.76266 -1.38666,-1.52533 -1.456,-1.59466 -0.13866,-0.27734 -0.624,-0.27734 -1.10933,-0.0693 -1.38667,0.69334 -3.46666,3.25867 -5.33866,6.37867 -0.55467,1.04 -1.04,1.872 -1.04,1.872 -0.0693,0 -1.248,0.13866 -2.56533,0.27733 -2.01067,0.208 -4.29867,0.416 -4.784,0.48533 -1.872,0.208 -3.05067,0.48533 -3.46667,0.69333 -0.48533,0.208 -0.55466,0.208 -0.55466,0.97067 0,0.76267 0.34666,1.31733 1.38666,2.14933 0.69334,0.55467 1.38667,0.55467 4.92267,0.208 1.31733,-0.208 2.42666,-0.27733 2.42666,-0.208 0.0693,0 -1.248,2.77333 -2.84266,6.10133 -5.33867,10.74666 -7.21067,15.25333 -7.97333,18.92799 -0.34667,1.80267 -0.416,2.42667 -0.13867,3.60533 0.13867,0.69334 0.34667,1.04 1.31733,2.01067 0.624,0.69333 1.456,1.456 1.872,1.664 0.69334,0.48533 1.73334,0.69333 1.73334,0.27733 0,-0.0693 0.13866,-0.13866 0.27733,-0.13866 0.34666,0 0.27733,-0.27734 -0.13867,-0.76267 -0.48533,-0.624 -0.48533,-0.76267 -0.13866,-2.288 0.62399,-2.42666 2.49599,-6.656 6.51733,-14.76799 2.42666,-4.85333 7.69599,-15.11466 7.90399,-15.39199 0.208,-0.208 7.072,-0.55467 12.34133,-0.624 3.88266,-0.13867 4.992,-0.208 5.2,-0.34667 0.0693,-0.13867 -0.0693,-0.48533 -0.832,-1.31733 z m 13.24265,0 c -0.48533,-0.55467 -1.17866,-1.31733 -1.456,-1.52533 l -0.48533,-0.48534 h -6.24 c -5.47733,-0.0693 -6.23999,-0.0693 -6.10133,-0.27733 0.0693,-0.13867 0.55467,-1.10933 1.10934,-2.08 0.55466,-1.04 0.97066,-2.01067 0.97066,-2.14933 0,-0.13867 -0.624,-0.832 -1.31733,-1.59467 -0.69333,-0.76266 -1.38667,-1.52533 -1.456,-1.59466 -0.13867,-0.27734 -0.624,-0.27734 -1.10933,-0.0693 -1.38667,0.69334 -3.46667,3.25867 -5.33867,6.37867 -0.55466,1.04 -1.04,1.872 -1.04,1.872 -0.0693,0 -1.248,0.13866 -2.56533,0.27733 -2.01066,0.208 -4.29866,0.416 -4.784,0.48533 -1.87199,0.208 -3.05066,0.48533 -3.46666,0.69333 -0.48533,0.208 -0.55467,0.208 -0.55467,0.97067 0,0.76267 0.34667,1.31733 1.38667,2.14933 0.69333,0.55467 1.38667,0.55467 4.92266,0.208 1.31734,-0.208 2.42667,-0.27733 2.42667,-0.208 0.0693,0 -1.248,2.77333 -2.84267,6.10133 -5.33866,10.74666 -7.21066,15.25333 -7.97333,18.92799 -0.34666,1.80267 -0.416,2.42667 -0.13866,3.60533 0.13866,0.69334 0.34666,1.04 1.31733,2.01067 0.624,0.69333 1.456,1.456 1.872,1.664 0.69333,0.48533 1.73333,0.69333 1.73333,0.27733 0,-0.0693 0.13867,-0.13866 0.27734,-0.13866 0.34666,0 0.27733,-0.27734 -0.13867,-0.76267 -0.48533,-0.624 -0.48533,-0.76267 -0.13867,-2.288 0.624,-2.42666 2.496,-6.656 6.51733,-14.76799 2.42667,-4.85333 7.696,-15.11466 7.904,-15.39199 0.208,-0.208 7.07199,-0.55467 12.34132,-0.624 3.88267,-0.13867 4.992,-0.208 5.2,-0.34667 0.0693,-0.13867 -0.0693,-0.48533 -0.832,-1.31733 z m -4.09066,25.23732 c 4.92266,-11.37066 5.616,-13.24266 5.616,-14.69866 0,-0.624 -0.0693,-0.69333 -1.73334,-2.35733 -1.04,-0.90134 -1.872,-1.664 -1.872,-1.664 -0.0693,0.0693 -0.27733,0.416 -0.48533,0.832 -0.208,0.55466 -0.90133,1.456 -2.56533,3.05066 -3.60533,3.744 -6.72533,7.76533 -9.984,13.17333 -0.624,1.10933 -1.10933,1.80266 -1.04,1.59466 0.0693,-0.13866 0.34667,-0.90133 0.624,-1.66399 1.04,-2.912 4.576,-11.30133 6.79467,-16.15466 3.05066,-6.448 5.82399,-12.272 7.76533,-16.01599 1.59466,-3.18934 2.01066,-4.22934 1.94133,-4.50667 -0.13867,-0.48533 -2.35733,-2.56533 -2.77333,-2.56533 -0.34667,0 -2.56533,2.288 -3.952,4.16 -2.84267,3.81333 -5.408,8.59733 -9.568,18.16532 -5.68533,13.24266 -7.62666,20.31466 -6.10133,22.39466 0.34667,0.48533 1.248,1.31733 2.21867,2.08 0.55467,0.34666 1.10933,0.41599 2.01067,0.13866 0.69333,-0.27733 1.24799,-1.04 3.46666,-4.992 1.52533,-2.91199 3.536,-6.03199 4.92266,-8.04266 1.38667,-2.01066 3.12,-4.29866 3.25867,-4.22933 0,0.0693 -0.208,0.624 -0.416,1.31733 -0.55467,1.17867 -1.248,2.84267 -2.84267,6.72533 -2.63466,6.51733 -3.05066,8.66667 -2.07999,9.984 0.27733,0.27733 0.832,0.832 1.38666,1.248 1.248,0.90133 1.80267,0.97066 2.704,0.13866 l 0.55467,-0.55466 -0.416,-0.27734 -0.34667,-0.34666 0.27733,-0.76267 c 0.208,-0.416 1.38667,-3.18933 2.63467,-6.17066 z m 23.15734,-4.992 c -0.416,-0.416 -0.832,-0.69333 -0.832,-0.69333 -0.0693,0 -0.27733,0.208 -0.48533,0.48533 -0.76267,0.97067 -1.31734,1.664 -4.09067,4.368 -2.35733,2.42666 -2.912,2.84266 -3.952,3.328 -0.624,0.34666 -1.31733,0.624 -1.59466,0.69333 -0.55467,0.208 -2.35733,0.13867 -2.56533,-0.0693 -0.208,-0.208 0.0693,-1.52534 0.62399,-2.912 0.69334,-1.59467 0.76267,-1.664 1.04,-1.456 0.34667,0.27733 1.38667,0.27733 2.01067,0 1.248,-0.48533 2.496,-1.94133 3.39733,-4.09067 0.55467,-1.17866 1.04,-2.98133 0.90133,-3.46666 -0.13866,-0.27733 -2.28799,-2.35733 -3.81333,-3.536 -0.90133,-0.76267 -1.52533,-0.832 -2.63466,-0.34667 -1.04,0.48534 -2.84267,2.14934 -3.67467,3.39734 -0.69333,1.04 -1.73333,3.25866 -2.21866,4.71466 -0.27734,1.04 -0.34667,1.52533 -0.34667,3.328 0,2.21866 0,2.21866 0.55467,3.18933 0.624,1.17867 2.56533,3.12 3.81333,3.81333 0.48533,0.208 1.17866,0.48533 1.59466,0.55467 1.664,0.27733 3.05067,-0.13867 4.71467,-1.31733 1.59466,-1.10934 6.448,-6.37867 7.69599,-8.38933 l 0.624,-0.97067 z m -10.46933,0.76267 c 0.416,-0.832 2.288,-3.05067 2.35733,-2.98133 0.13867,0.13866 -0.416,1.03999 -1.04,1.94133 -0.416,0.416 -0.90133,1.04 -1.17866,1.17866 l -0.55467,0.416 z M 415.0068,341.7985 c -0.76267,-0.76267 -1.38667,-1.31734 -1.38667,-1.31734 -0.0693,0.0693 -0.624,1.17867 -1.31733,2.56534 -2.56533,5.19999 -5.408,9.29066 -9.29066,13.38132 -1.31733,1.456 -3.39733,3.328 -3.536,3.25867 -0.0693,-0.13867 0.48533,-2.704 0.97067,-4.22933 0.27733,-0.76267 0.90133,-2.496 1.52533,-3.88267 0.624,-1.456 1.10933,-2.704 1.10933,-2.84266 0,-0.13867 -0.13867,-0.27734 -0.208,-0.416 -0.13867,-0.0693 -1.10933,-0.90134 -2.14933,-1.94134 l -1.94133,-1.94133 -0.55467,0.27733 c -1.248,0.76267 -2.912,3.536 -3.67466,6.10133 -0.416,1.17867 -0.55467,1.59467 -1.248,2.21867 -1.10934,1.248 -5.96267,5.2 -6.30933,5.2 -0.208,0 1.94133,-3.952 3.95199,-7.28 1.10934,-1.872 2.08,-3.536 2.08,-3.744 0,-0.27733 -0.69333,-0.97066 -3.39733,-3.60533 -0.416,-0.27733 -0.832,-0.55466 -1.04,-0.55466 -1.52533,0 -5.2,4.50666 -6.86399,8.31999 -1.10934,2.63467 -1.31734,3.536 -1.31734,5.89333 0,2.08 0.0693,2.21867 0.48534,2.98133 0.416,0.76267 1.73333,2.21867 2.84266,2.98134 0.69333,0.48533 1.664,0.62399 2.35733,0.48533 0.90134,-0.27733 3.536,-2.288 6.30933,-4.64533 l 1.04,-0.97067 0.13867,0.55467 c 0.208,1.17866 0.76267,2.08 2.14933,3.39733 1.52533,1.52533 2.77333,2.42666 3.81333,2.56533 1.04,0.208 1.17867,0.208 1.94134,-0.13867 0.48533,-0.208 1.38666,-0.97066 2.84266,-2.42666 4.92266,-4.992 8.80533,-10.88533 11.43999,-17.26399 l 0.69334,-1.664 z"
       id="text1"
       style="font-size:69.3333px;font-family:Bartolome;-inkscape-font-specification:'Bartolome, Normal'"
       aria-label="Matthew Boon" /><path
       d="m 315.09137,377.74477 c -5.06133,-5.54666 -6.032,-6.17066 -9.70666,-6.72533 -2.08,-0.34666 -5.26933,0 -7.696,0.832 -0.34666,0.13867 -1.04,0.416 -1.59466,0.55467 -1.248,0.48533 -3.952,1.872 -5.68533,2.912 -1.52534,0.97066 -1.59467,1.04 -3.60534,2.63466 -2.28799,1.872 -2.84266,2.63467 -3.05066,4.02133 -0.0693,0.76267 -0.0693,0.832 0.416,1.456 1.04,1.10934 1.248,1.10934 2.704,-0.27733 2.01066,-1.80267 6.93333,-4.64533 9.98399,-5.824 2.42667,-0.832 2.288,-0.90133 1.456,0.34667 -1.456,2.14933 -4.02133,7.83466 -7.62666,16.84799 -4.50667,11.16266 -5.89333,16.29333 -5.2,18.78933 0.27734,1.03999 2.63467,3.32799 3.46667,3.32799 0.624,0 1.248,-0.55466 1.10933,-0.90133 -0.13867,-0.624 0.13867,-0.55467 0.76267,0.208 0.76266,0.90133 2.49599,2.288 3.53599,2.84267 1.04,0.55466 2.288,0.832 3.67467,1.04 2.496,0.34666 5.2,0.13866 6.37866,-0.48534 1.248,-0.624 3.328,-3.05066 4.02133,-4.71466 0.90134,-2.35733 0.832,-4.71467 -0.34666,-7.28 -0.48534,-1.04 -0.832,-1.456 -2.98133,-3.60533 l -2.496,-2.42667 1.52533,-0.832 c 4.02133,-2.21866 8.59733,-5.61599 10.53866,-7.76532 2.08,-2.21867 3.46667,-4.784 3.81333,-7.00267 0.416,-2.63466 -0.55466,-4.85333 -3.39733,-7.97333 z m -12.41066,27.10932 c 1.38667,3.05067 0.69333,6.51733 -1.80267,9.152 -0.90133,0.97066 -0.97066,0.97066 -2.14933,1.248 -1.52533,0.34666 -3.46666,0.34666 -4.992,0 -1.31733,-0.27734 -1.73333,-0.48534 -2.63466,-1.31734 l -0.69333,-0.62399 0.97066,-2.704 c 1.38667,-3.88267 1.456,-4.16 1.73333,-4.09067 0.208,0.0693 2.01067,-0.832 4.50667,-2.288 1.664,-0.90133 1.664,-0.90133 2.63466,-0.832 1.456,0.0693 2.01067,0.48534 2.42667,1.456 z m 10.46933,-23.71199 c -0.208,1.664 -2.08,4.992 -3.88267,7.00267 -1.10933,1.17866 -2.912,2.84266 -4.02133,3.67466 -1.17866,0.90134 -6.72533,4.85333 -7.83466,5.47733 -1.248,0.832 -1.248,0.832 -0.76267,-0.27733 0.27734,-0.55467 1.248,-2.84267 5.2,-11.99466 1.59467,-3.67467 3.12,-7.55733 3.12,-7.76533 0,-0.13867 -0.208,-0.55467 -0.55467,-0.90133 l -0.55466,-0.69334 h 1.456 c 2.91199,0 5.75466,0.90134 6.72532,2.21867 0.69334,1.04 1.17867,2.35733 1.10934,3.25866 z m 25.58399,21.07733 c -0.0693,0 -0.55467,-0.48534 -1.17867,-0.97067 l -1.04,-0.97066 h -2.08 c -1.10933,0.0693 -2.496,0.13866 -3.05066,0.20799 -0.55467,0.0693 -1.10934,0.13867 -1.248,0.13867 -0.0693,0 -0.13867,-0.624 -0.13867,-2.01066 0,-2.704 -0.208,-3.328 -1.664,-4.784 -1.456,-1.38667 -1.872,-1.664 -2.704,-1.664 -0.832,0 -1.80266,0.416 -2.912,1.38667 l -0.832,0.69333 -0.624,-0.55467 c -0.41599,-0.27733 -0.76266,-0.55466 -0.90133,-0.55466 -0.34666,0 -2.01066,1.80266 -2.77333,3.05066 -2.56533,3.81333 -3.81333,7.83466 -3.81333,12.20266 0,2.77333 0.48533,4.43733 1.80266,5.824 0.832,0.90133 2.56534,2.14933 3.18934,2.35733 1.38666,0.34667 2.84266,-0.208 4.50666,-1.80267 1.94133,-1.80266 4.22933,-5.75466 5.26933,-9.22132 l 0.48533,-1.38667 1.04,-0.27733 c 2.01067,-0.624 5.13067,-1.17867 7.072,-1.17867 0.69333,0 1.17867,-0.0693 1.38667,-0.13867 0.13866,-0.13866 0.27733,-0.27733 0.208,-0.34666 z m -10.95467,-4.784 c -0.0693,2.08 -0.48533,3.88266 -0.90133,4.02133 -2.21866,0.90133 -3.536,1.52533 -3.67466,1.80267 -0.0693,0.13866 -0.13867,0.48533 -0.13867,0.832 0,0.416 0.0693,0.624 0.624,1.10933 0.416,0.27733 0.90133,0.55467 1.10933,0.624 0.27734,0 0.27734,0.13867 -0.624,1.38666 -1.04,1.52534 -2.704,3.39734 -3.88266,4.16 -0.34667,0.27734 -0.832,0.55467 -1.04,0.624 -0.34667,0.208 -0.34667,0.208 -0.27733,-0.34666 0.76266,-4.992 2.42666,-9.29067 5.06133,-13.104 0.416,-0.624 0.76266,-1.248 0.76266,-1.38666 0,-0.13867 -0.208,-0.48534 -0.48533,-0.76267 l -0.48533,-0.48533 0.624,-0.48534 c 0.832,-0.76266 2.21866,-1.248 2.704,-1.04 0.55466,0.27734 0.76266,1.248 0.62399,3.05067 z m 31.82404,4.784 c -0.0693,0 -0.55467,-0.48534 -1.17867,-0.97067 l -1.04,-0.97066 h -2.08 c -1.10933,0.0693 -2.496,0.13866 -3.05066,0.20799 -0.55467,0.0693 -1.10934,0.13867 -1.248,0.13867 -0.0693,0 -0.13867,-0.624 -0.13867,-2.01066 0,-2.704 -0.208,-3.328 -1.664,-4.784 -1.456,-1.38667 -1.872,-1.664 -2.704,-1.664 -0.832,0 -1.80266,0.416 -2.912,1.38667 l -0.832,0.69333 -0.624,-0.55467 c -0.416,-0.27733 -0.76266,-0.55466 -0.90133,-0.55466 -0.34667,0 -2.01066,1.80266 -2.77333,3.05066 -2.56533,3.81333 -3.81333,7.83466 -3.81333,12.20266 0,2.77333 0.48533,4.43733 1.80266,5.824 0.832,0.90133 2.56534,2.14933 3.18934,2.35733 1.38666,0.34667 2.84266,-0.208 4.50666,-1.80267 1.94133,-1.80266 4.22933,-5.75466 5.26933,-9.22132 l 0.48533,-1.38667 1.04,-0.27733 c 2.01067,-0.624 5.13067,-1.17867 7.072,-1.17867 0.69333,0 1.17867,-0.0693 1.38667,-0.13867 0.13866,-0.13866 0.27733,-0.27733 0.208,-0.34666 z m -10.95467,-4.784 c -0.0693,2.08 -0.48533,3.88266 -0.90133,4.02133 -2.21866,0.90133 -3.536,1.52533 -3.67466,1.80267 -0.0693,0.13866 -0.13867,0.48533 -0.13867,0.832 0,0.416 0.0693,0.624 0.624,1.10933 0.416,0.27733 0.90133,0.55467 1.10933,0.624 0.27734,0 0.27734,0.13867 -0.624,1.38666 -1.04,1.52534 -2.704,3.39734 -3.88266,4.16 -0.34667,0.27734 -0.832,0.55467 -1.04,0.624 -0.34667,0.208 -0.34667,0.208 -0.27733,-0.34666 0.76266,-4.992 2.42666,-9.29067 5.06133,-13.104 0.416,-0.624 0.76266,-1.248 0.76266,-1.38666 0,-0.13867 -0.208,-0.48534 -0.48533,-0.76267 l -0.48533,-0.48533 0.624,-0.48534 c 0.832,-0.76266 2.21866,-1.248 2.70399,-1.04 0.55467,0.27734 0.76267,1.248 0.624,3.05067 z m 30.16002,-5.33866 c -1.52533,-1.456 -1.73333,-1.456 -2.84266,-0.624 -2.21867,1.80266 -7.55733,7.48799 -12.54933,13.45066 -0.97067,1.248 -1.94133,2.28799 -2.01067,2.42666 -0.13866,0.13867 0.55467,-1.59466 1.59467,-3.81333 1.664,-3.88266 2.35733,-5.54666 2.56533,-6.72533 0.13867,-0.48533 0,-0.624 -1.52533,-2.21867 -0.90133,-0.97066 -1.80267,-1.87199 -2.01067,-1.94133 -0.34666,-0.208 -0.48533,-0.208 -0.832,0.208 -0.48533,0.624 -2.77333,5.13067 -4.02133,7.97333 -1.38666,3.18933 -1.664,4.22933 -1.664,6.656 0,1.872 0,2.08 0.416,2.98133 0.27734,0.55467 0.832,1.31733 1.38667,1.872 0.90133,0.832 1.04,0.90133 1.59466,0.90133 0.90134,0 1.73334,-0.55466 2.704,-1.94133 1.456,-2.08 3.536,-4.85333 4.85333,-6.448 2.56534,-3.12 5.13067,-6.17066 5.26933,-6.10133 0,0 -0.208,0.624 -0.48533,1.248 -1.456,3.60533 -2.496,8.25066 -2.288,10.26133 0.0693,0.55467 0.208,1.248 0.27734,1.52533 0.27733,0.624 1.24799,1.80267 2.21866,2.56533 0.624,0.48534 1.04,0.69334 1.31733,0.69334 0.624,0 1.04,-0.34667 0.76267,-0.76267 -0.624,-0.832 -0.69333,-1.38666 -0.55467,-2.77333 0.208,-1.80267 0.90134,-4.02133 2.14934,-7.14133 0.90133,-2.288 3.46666,-7.83466 4.50666,-9.84533 0.27733,-0.416 0.416,-0.832 0.416,-0.97066 0,-0.13867 -0.55467,-0.76267 -1.248,-1.456 z"
       id="text1-0"
       style="font-size:69.3333px;font-family:Bartolome;-inkscape-font-specification:'Bartolome, Normal'"
       aria-label="Matthew Boon" /></g></svg>
